<?xml version="1.0" encoding="UTF-8" standalone="no"?>
<!DOCTYPE svg PUBLIC "-//W3C//DTD SVG 1.1//EN"
 "http://www.w3.org/Graphics/SVG/1.1/DTD/svg11.dtd">
<!-- Generated by graphviz version 2.40.1 (20161225.0304)
 -->
<!-- Title: %3 Pages: 1 -->
<svg width="242pt" height="772pt"
 viewBox="0.00 0.00 242.00 772.00" xmlns="http://www.w3.org/2000/svg" xmlns:xlink="http://www.w3.org/1999/xlink">
<g id="graph0" class="graph" transform="scale(1 1) rotate(0) translate(4 768)">
<title>%3</title>
<polygon fill="#ffffff" stroke="transparent" points="-4,4 -4,-768 238,-768 238,4 -4,4"/>
<!-- signal -->
<g id="node1" class="node">
<title>signal</title>
<text text-anchor="start" x="100.2793" y="-744.8" font-family="Times,serif" font-size="14.00" fill="#000000">signal</text>
<polygon fill="none" stroke="#000000" points="47,-714 47,-734 100,-734 100,-714 47,-714"/>
<text text-anchor="start" x="49.7827" y="-719.8" font-family="Times,serif" font-size="14.00" fill="#000000">timestep</text>
<polygon fill="none" stroke="#000000" points="102,-714 102,-734 187,-734 187,-714 102,-714"/>
<text text-anchor="start" x="104.8379" y="-719.8" font-family="Times,serif" font-size="14.00" fill="#000000">sensor_counts</text>
<polygon fill="none" stroke="#000000" points="47,-692 47,-712 100,-712 100,-692 47,-692"/>
<text text-anchor="start" x="70" y="-697.8" font-family="Times,serif" font-size="14.00" fill="#000000">3</text>
<polygon fill="none" stroke="#000000" points="102,-692 102,-712 187,-712 187,-692 102,-692"/>
<text text-anchor="start" x="120.5879" y="-698.8" font-family="Times,serif" font-weight="bold" font-size="14.00" fill="#000000">[0,3,1,0]</text>
<polygon fill="none" stroke="#000000" points="47,-670 47,-690 100,-690 100,-670 47,-670"/>
<text text-anchor="start" x="70" y="-675.8" font-family="Times,serif" font-size="14.00" fill="#000000">4</text>
<polygon fill="none" stroke="#000000" points="102,-670 102,-690 187,-690 187,-670 102,-670"/>
<text text-anchor="start" x="120.5879" y="-676.8" font-family="Times,serif" font-weight="bold" font-size="14.00" fill="#000000">[0,2,2,0]</text>
<polygon fill="none" stroke="#000000" points="47,-648 47,-668 100,-668 100,-648 47,-648"/>
<text text-anchor="start" x="70" y="-653.8" font-family="Times,serif" font-size="14.00" fill="#000000">5</text>
<polygon fill="none" stroke="#000000" points="102,-648 102,-668 187,-668 187,-648 102,-648"/>
<text text-anchor="start" x="120.5879" y="-654.8" font-family="Times,serif" font-weight="bold" font-size="14.00" fill="#000000">[0,1,0,0]</text>
</g>
<!-- find_scintillations -->
<g id="node5" class="node">
<title>find_scintillations</title>
<ellipse fill="none" stroke="#000000" cx="117" cy="-584" rx="73.4757" ry="18"/>
<text text-anchor="middle" x="117" y="-579.8" font-family="Times,serif" font-size="14.00" fill="#000000">find_scintillations</text>
</g>
<!-- signal&#45;&gt;find_scintillations -->
<g id="edge1" class="edge">
<title>signal&#45;&gt;find_scintillations</title>
<path fill="none" stroke="#000000" d="M117,-637.706C117,-628.9228 117,-620.2847 117,-612.5909"/>
<polygon fill="#000000" stroke="#000000" points="120.5001,-612.426 117,-602.4261 113.5001,-612.4261 120.5001,-612.426"/>
</g>
<!-- scintillations -->
<g id="node2" class="node">
<title>scintillations</title>
<text text-anchor="start" x="81.2241" y="-510.8" font-family="Times,serif" font-size="14.00" fill="#000000">scintillations</text>
<polygon fill="none" stroke="#000000" points="60,-480 60,-500 97,-500 97,-480 60,-480"/>
<text text-anchor="start" x="76.5552" y="-485.8" font-family="Times,serif" font-size="14.00" fill="#000000">t</text>
<polygon fill="none" stroke="#000000" points="99,-480 99,-500 123,-500 123,-480 99,-480"/>
<text text-anchor="start" x="107.5" y="-485.8" font-family="Times,serif" font-size="14.00" fill="#000000">x</text>
<polygon fill="none" stroke="#000000" points="125,-480 125,-500 152,-500 152,-480 125,-480"/>
<text text-anchor="start" x="135" y="-485.8" font-family="Times,serif" font-size="14.00" fill="#000000">y</text>
<polygon fill="none" stroke="#000000" points="154,-480 154,-500 174,-500 174,-480 154,-480"/>
<text text-anchor="start" x="160.8931" y="-485.8" font-family="Times,serif" font-size="14.00" fill="#000000">z</text>
<polygon fill="none" stroke="#000000" points="60,-458 60,-478 97,-478 97,-458 60,-458"/>
<text text-anchor="start" x="62.75" y="-463.8" font-family="Times,serif" font-size="14.00" fill="#000000">101.1</text>
<polygon fill="none" stroke="#000000" points="99,-458 99,-478 123,-478 123,-458 99,-458"/>
<text text-anchor="start" x="104" y="-463.8" font-family="Times,serif" font-size="14.00" fill="#000000">77</text>
<polygon fill="none" stroke="#000000" points="125,-458 125,-478 152,-478 152,-458 125,-458"/>
<text text-anchor="start" x="128" y="-463.8" font-family="Times,serif" font-size="14.00" fill="#000000">102</text>
<polygon fill="none" stroke="#000000" points="154,-458 154,-478 174,-478 174,-458 154,-458"/>
<text text-anchor="start" x="160.5" y="-463.8" font-family="Times,serif" font-size="14.00" fill="#000000">9</text>
<polygon fill="none" stroke="#000000" points="60,-436 60,-456 97,-456 97,-436 60,-436"/>
<text text-anchor="start" x="62.75" y="-441.8" font-family="Times,serif" font-size="14.00" fill="#000000">103.4</text>
<polygon fill="none" stroke="#000000" points="99,-436 99,-456 123,-456 123,-436 99,-436"/>
<text text-anchor="start" x="101.6689" y="-441.8" font-family="Times,serif" font-size="14.00" fill="#000000">&#45;20</text>
<polygon fill="none" stroke="#000000" points="125,-436 125,-456 152,-456 152,-436 125,-436"/>
<text text-anchor="start" x="131.5" y="-441.8" font-family="Times,serif" font-size="14.00" fill="#000000">12</text>
<polygon fill="none" stroke="#000000" points="154,-436 154,-456 174,-456 174,-436 154,-436"/>
<text text-anchor="start" x="157" y="-441.8" font-family="Times,serif" font-size="14.00" fill="#000000">32</text>
</g>
<!-- coincidence_finder -->
<g id="node6" class="node">
<title>coincidence_finder</title>
<ellipse fill="none" stroke="#000000" cx="117" cy="-372" rx="77.2744" ry="18"/>
<text text-anchor="middle" x="117" y="-367.8" font-family="Times,serif" font-size="14.00" fill="#000000">coincidence_finder</text>
</g>
<!-- scintillations&#45;&gt;coincidence_finder -->
<g id="edge3" class="edge">
<title>scintillations&#45;&gt;coincidence_finder</title>
<path fill="none" stroke="#000000" d="M117,-425.9316C117,-417.1487 117,-408.3316 117,-400.4457"/>
<polygon fill="#000000" stroke="#000000" points="120.5001,-400.3597 117,-390.3598 113.5001,-400.3598 120.5001,-400.3597"/>
</g>
<!-- decays -->
<g id="node3" class="node">
<title>decays</title>
<text text-anchor="start" x="67.6377" y="-298.8" font-family="Times,serif" font-size="14.00" fill="#000000">beta decay events</text>
<polygon fill="none" stroke="#000000" points="39,-267 39,-287 76,-287 76,-267 39,-267"/>
<text text-anchor="start" x="55.5552" y="-272.8" font-family="Times,serif" font-size="14.00" fill="#000000">t</text>
<polygon fill="none" stroke="#000000" points="78,-267 78,-287 101,-287 101,-267 78,-267"/>
<text text-anchor="start" x="86" y="-272.8" font-family="Times,serif" font-size="14.00" fill="#000000">x</text>
<polygon fill="none" stroke="#000000" points="103,-267 103,-287 116,-287 116,-267 103,-267"/>
<text text-anchor="start" x="106" y="-272.8" font-family="Times,serif" font-size="14.00" fill="#000000">y</text>
<polygon fill="none" stroke="#000000" points="118,-267 118,-287 135,-287 135,-267 118,-267"/>
<text text-anchor="start" x="123.3931" y="-272.8" font-family="Times,serif" font-size="14.00" fill="#000000">z</text>
<polygon fill="none" stroke="#000000" points="137,-267 137,-287 170,-287 170,-267 137,-267"/>
<text text-anchor="start" x="139.8965" y="-272.8" font-family="Times,serif" font-size="14.00" fill="#000000">theta</text>
<polygon fill="none" stroke="#000000" points="172,-267 172,-287 195,-287 195,-267 172,-267"/>
<text text-anchor="start" x="174.5552" y="-272.8" font-family="Times,serif" font-size="14.00" fill="#000000">phi</text>
<polygon fill="none" stroke="#000000" points="39,-245 39,-265 76,-265 76,-245 39,-245"/>
<text text-anchor="start" x="41.75" y="-250.8" font-family="Times,serif" font-size="14.00" fill="#000000">98.05</text>
<polygon fill="none" stroke="#000000" points="78,-245 78,-265 101,-265 101,-245 78,-245"/>
<text text-anchor="start" x="80.75" y="-250.8" font-family="Times,serif" font-size="14.00" fill="#000000">0.2</text>
<polygon fill="none" stroke="#000000" points="103,-245 103,-265 116,-265 116,-245 103,-245"/>
<text text-anchor="start" x="106" y="-250.8" font-family="Times,serif" font-size="14.00" fill="#000000">1</text>
<polygon fill="none" stroke="#000000" points="118,-245 118,-265 135,-265 135,-245 118,-245"/>
<text text-anchor="start" x="120.6689" y="-250.8" font-family="Times,serif" font-size="14.00" fill="#000000">&#45;3</text>
<polygon fill="none" stroke="#000000" points="137,-245 137,-265 170,-265 170,-245 137,-245"/>
<text text-anchor="start" x="144.75" y="-250.8" font-family="Times,serif" font-size="14.00" fill="#000000">3.3</text>
<polygon fill="none" stroke="#000000" points="172,-245 172,-265 195,-265 195,-245 172,-245"/>
<text text-anchor="start" x="174.75" y="-250.8" font-family="Times,serif" font-size="14.00" fill="#000000">1.9</text>
<polygon fill="none" stroke="#000000" points="36,-242 36,-290 198,-290 198,-242 36,-242"/>
</g>
<!-- calculate_density -->
<g id="node7" class="node">
<title>calculate_density</title>
<ellipse fill="none" stroke="#000000" cx="117" cy="-180" rx="71.4858" ry="18"/>
<text text-anchor="middle" x="117" y="-175.8" font-family="Times,serif" font-size="14.00" fill="#000000">calculate_density</text>
</g>
<!-- decays&#45;&gt;calculate_density -->
<g id="edge5" class="edge">
<title>decays&#45;&gt;calculate_density</title>
<path fill="none" stroke="#000000" d="M117,-233.893C117,-225.3034 117,-216.4582 117,-208.4801"/>
<polygon fill="#000000" stroke="#000000" points="120.5001,-208.2439 117,-198.2439 113.5001,-208.244 120.5001,-208.2439"/>
</g>
<!-- density -->
<g id="node4" class="node">
<title>density</title>
<text text-anchor="start" x="60.4258" y="-106.8" font-family="Times,serif" font-size="14.00" fill="#000000">radioisotope density</text>
<polygon fill="none" stroke="#000000" points="14,-76 14,-96 65,-96 65,-76 14,-76"/>
<text text-anchor="start" x="16.7534" y="-81.8" font-family="Times,serif" font-size="14.00" fill="#000000">voxel id</text>
<polygon fill="none" stroke="#000000" points="67,-76 67,-96 95,-96 95,-76 67,-76"/>
<text text-anchor="start" x="77.5" y="-81.8" font-family="Times,serif" font-size="14.00" fill="#000000">x</text>
<polygon fill="none" stroke="#000000" points="97,-76 97,-96 127,-96 127,-76 97,-76"/>
<text text-anchor="start" x="108.5" y="-81.8" font-family="Times,serif" font-size="14.00" fill="#000000">y</text>
<polygon fill="none" stroke="#000000" points="129,-76 129,-96 153,-96 153,-76 129,-76"/>
<text text-anchor="start" x="137.8931" y="-81.8" font-family="Times,serif" font-size="14.00" fill="#000000">z</text>
<polygon fill="none" stroke="#000000" points="155,-76 155,-96 220,-96 220,-76 155,-76"/>
<text text-anchor="start" x="157.5723" y="-81.8" font-family="Times,serif" font-size="14.00" fill="#000000">decays/sec</text>
<polygon fill="none" stroke="#000000" points="14,-54 14,-74 65,-74 65,-54 14,-54"/>
<text text-anchor="start" x="36" y="-59.8" font-family="Times,serif" font-size="14.00" fill="#000000">1</text>
<polygon fill="none" stroke="#000000" points="67,-54 67,-74 95,-74 95,-54 67,-54"/>
<text text-anchor="start" x="72.25" y="-59.8" font-family="Times,serif" font-size="14.00" fill="#000000">0.4</text>
<polygon fill="none" stroke="#000000" points="97,-54 97,-74 127,-74 127,-54 97,-54"/>
<text text-anchor="start" x="105" y="-59.8" font-family="Times,serif" font-size="14.00" fill="#000000">20</text>
<polygon fill="none" stroke="#000000" points="129,-54 129,-74 153,-74 153,-54 129,-54"/>
<text text-anchor="start" x="134" y="-59.8" font-family="Times,serif" font-size="14.00" fill="#000000">13</text>
<polygon fill="none" stroke="#000000" points="155,-54 155,-74 220,-74 220,-54 155,-54"/>
<text text-anchor="start" x="175.25" y="-59.8" font-family="Times,serif" font-size="14.00" fill="#000000">10.4</text>
<polygon fill="none" stroke="#000000" points="14,-32 14,-52 65,-52 65,-32 14,-32"/>
<text text-anchor="start" x="36" y="-37.8" font-family="Times,serif" font-size="14.00" fill="#000000">2</text>
<polygon fill="none" stroke="#000000" points="67,-32 67,-52 95,-52 95,-32 67,-32"/>
<text text-anchor="start" x="72.25" y="-37.8" font-family="Times,serif" font-size="14.00" fill="#000000">1.4</text>
<polygon fill="none" stroke="#000000" points="97,-32 97,-52 127,-52 127,-32 97,-32"/>
<text text-anchor="start" x="108.5" y="-37.8" font-family="Times,serif" font-size="14.00" fill="#000000">2</text>
<polygon fill="none" stroke="#000000" points="129,-32 129,-52 153,-52 153,-32 129,-32"/>
<text text-anchor="start" x="137.5" y="-37.8" font-family="Times,serif" font-size="14.00" fill="#000000">3</text>
<polygon fill="none" stroke="#000000" points="155,-32 155,-52 220,-52 220,-32 155,-32"/>
<text text-anchor="start" x="175.25" y="-37.8" font-family="Times,serif" font-size="14.00" fill="#000000">1.01</text>
<polygon fill="none" stroke="#000000" points="14,-10 14,-30 65,-30 65,-10 14,-10"/>
<text text-anchor="start" x="36" y="-15.8" font-family="Times,serif" font-size="14.00" fill="#000000">3</text>
<polygon fill="none" stroke="#000000" points="67,-10 67,-30 95,-30 95,-10 67,-10"/>
<text text-anchor="start" x="69.9189" y="-15.8" font-family="Times,serif" font-size="14.00" fill="#000000">&#45;3.2</text>
<polygon fill="none" stroke="#000000" points="97,-10 97,-30 127,-30 127,-10 97,-10"/>
<text text-anchor="start" x="99.75" y="-15.8" font-family="Times,serif" font-size="14.00" fill="#000000">0.01</text>
<polygon fill="none" stroke="#000000" points="129,-10 129,-30 153,-30 153,-10 129,-10"/>
<text text-anchor="start" x="131.6689" y="-15.8" font-family="Times,serif" font-size="14.00" fill="#000000">&#45;20</text>
<polygon fill="none" stroke="#000000" points="155,-10 155,-30 220,-30 220,-10 155,-10"/>
<text text-anchor="start" x="175.25" y="-15.8" font-family="Times,serif" font-size="14.00" fill="#000000">0.00</text>
</g>
<!-- find_scintillations&#45;&gt;scintillations -->
<g id="edge2" class="edge">
<title>find_scintillations&#45;&gt;scintillations</title>
<path fill="none" stroke="#000000" d="M117,-565.5362C117,-558.3052 117,-549.5551 117,-540.4192"/>
<polygon fill="#000000" stroke="#000000" points="120.5001,-540.408 117,-530.408 113.5001,-540.4081 120.5001,-540.408"/>
</g>
<!-- coincidence_finder&#45;&gt;decays -->
<g id="edge4" class="edge">
<title>coincidence_finder&#45;&gt;decays</title>
<path fill="none" stroke="#000000" d="M117,-353.9431C117,-346.5242 117,-337.5162 117,-328.2951"/>
<polygon fill="#000000" stroke="#000000" points="120.5001,-328.2707 117,-318.2707 113.5001,-328.2707 120.5001,-328.2707"/>
</g>
<!-- calculate_density&#45;&gt;density -->
<g id="edge6" class="edge">
<title>calculate_density&#45;&gt;density</title>
<path fill="none" stroke="#000000" d="M117,-161.9752C117,-154.6487 117,-145.6609 117,-136.1187"/>
<polygon fill="#000000" stroke="#000000" points="120.5001,-136.0203 117,-126.0203 113.5001,-136.0204 120.5001,-136.0203"/>
</g>
</g>
</svg>
