<?xml version="1.0" encoding="UTF-8" standalone="no"?>
<!DOCTYPE svg PUBLIC "-//W3C//DTD SVG 1.1//EN"
 "http://www.w3.org/Graphics/SVG/1.1/DTD/svg11.dtd">
<!-- Generated by graphviz version 2.40.1 (20161225.0304)
 -->
<!-- Title: %3 Pages: 1 -->
<svg width="1399pt" height="134pt"
 viewBox="0.00 0.00 1398.74 134.00" xmlns="http://www.w3.org/2000/svg" xmlns:xlink="http://www.w3.org/1999/xlink">
<g id="graph0" class="graph" transform="scale(1 1) rotate(0) translate(4 130)">
<title>%3</title>
<polygon fill="#ffffff" stroke="transparent" points="-4,4 -4,-130 1394.7358,-130 1394.7358,4 -4,4"/>
<!-- signal -->
<g id="node1" class="node">
<title>signal</title>
<text text-anchor="start" x="67.2793" y="-106.8" font-family="Times,serif" font-size="14.00" fill="#000000">signal</text>
<polygon fill="none" stroke="#000000" points="14,-76 14,-96 67,-96 67,-76 14,-76"/>
<text text-anchor="start" x="16.7827" y="-81.8" font-family="Times,serif" font-size="14.00" fill="#000000">timestep</text>
<polygon fill="none" stroke="#000000" points="69,-76 69,-96 154,-96 154,-76 69,-76"/>
<text text-anchor="start" x="71.8379" y="-81.8" font-family="Times,serif" font-size="14.00" fill="#000000">sensor_counts</text>
<polygon fill="none" stroke="#000000" points="14,-54 14,-74 67,-74 67,-54 14,-54"/>
<text text-anchor="start" x="37" y="-59.8" font-family="Times,serif" font-size="14.00" fill="#000000">3</text>
<polygon fill="none" stroke="#000000" points="69,-54 69,-74 154,-74 154,-54 69,-54"/>
<text text-anchor="start" x="87.5879" y="-60.8" font-family="Times,serif" font-weight="bold" font-size="14.00" fill="#000000">[0,3,1,0]</text>
<polygon fill="none" stroke="#000000" points="14,-32 14,-52 67,-52 67,-32 14,-32"/>
<text text-anchor="start" x="37" y="-37.8" font-family="Times,serif" font-size="14.00" fill="#000000">4</text>
<polygon fill="none" stroke="#000000" points="69,-32 69,-52 154,-52 154,-32 69,-32"/>
<text text-anchor="start" x="87.5879" y="-38.8" font-family="Times,serif" font-weight="bold" font-size="14.00" fill="#000000">[0,2,2,0]</text>
<polygon fill="none" stroke="#000000" points="14,-10 14,-30 67,-30 67,-10 14,-10"/>
<text text-anchor="start" x="37" y="-15.8" font-family="Times,serif" font-size="14.00" fill="#000000">5</text>
<polygon fill="none" stroke="#000000" points="69,-10 69,-30 154,-30 154,-10 69,-10"/>
<text text-anchor="start" x="87.5879" y="-16.8" font-family="Times,serif" font-weight="bold" font-size="14.00" fill="#000000">[0,1,0,0]</text>
</g>
<!-- find_scintillations -->
<g id="node5" class="node">
<title>find_scintillations</title>
<ellipse fill="none" stroke="#000000" cx="277.4879" cy="-63" rx="73.4757" ry="18"/>
<text text-anchor="middle" x="277.4879" y="-58.8" font-family="Times,serif" font-size="14.00" fill="#000000">find_scintillations</text>
</g>
<!-- signal&#45;&gt;find_scintillations -->
<g id="edge1" class="edge">
<title>signal&#45;&gt;find_scintillations</title>
<path fill="none" stroke="#000000" d="M168.0225,-63C176.5056,-63 185.1216,-63 193.6033,-63"/>
<polygon fill="#000000" stroke="#000000" points="193.8647,-66.5001 203.8646,-63 193.8646,-59.5001 193.8647,-66.5001"/>
</g>
<!-- scintillations -->
<g id="node2" class="node">
<title>scintillations</title>
<text text-anchor="start" x="422.1999" y="-95.8" font-family="Times,serif" font-size="14.00" fill="#000000">scintillations</text>
<polygon fill="none" stroke="#000000" points="400.9757,-65 400.9757,-85 437.9757,-85 437.9757,-65 400.9757,-65"/>
<text text-anchor="start" x="417.5309" y="-70.8" font-family="Times,serif" font-size="14.00" fill="#000000">t</text>
<polygon fill="none" stroke="#000000" points="439.9757,-65 439.9757,-85 463.9757,-85 463.9757,-65 439.9757,-65"/>
<text text-anchor="start" x="448.4757" y="-70.8" font-family="Times,serif" font-size="14.00" fill="#000000">x</text>
<polygon fill="none" stroke="#000000" points="465.9757,-65 465.9757,-85 492.9757,-85 492.9757,-65 465.9757,-65"/>
<text text-anchor="start" x="475.9757" y="-70.8" font-family="Times,serif" font-size="14.00" fill="#000000">y</text>
<polygon fill="none" stroke="#000000" points="494.9757,-65 494.9757,-85 514.9757,-85 514.9757,-65 494.9757,-65"/>
<text text-anchor="start" x="501.8688" y="-70.8" font-family="Times,serif" font-size="14.00" fill="#000000">z</text>
<polygon fill="none" stroke="#000000" points="400.9757,-43 400.9757,-63 437.9757,-63 437.9757,-43 400.9757,-43"/>
<text text-anchor="start" x="403.7257" y="-48.8" font-family="Times,serif" font-size="14.00" fill="#000000">101.1</text>
<polygon fill="none" stroke="#000000" points="439.9757,-43 439.9757,-63 463.9757,-63 463.9757,-43 439.9757,-43"/>
<text text-anchor="start" x="444.9757" y="-48.8" font-family="Times,serif" font-size="14.00" fill="#000000">77</text>
<polygon fill="none" stroke="#000000" points="465.9757,-43 465.9757,-63 492.9757,-63 492.9757,-43 465.9757,-43"/>
<text text-anchor="start" x="468.9757" y="-48.8" font-family="Times,serif" font-size="14.00" fill="#000000">102</text>
<polygon fill="none" stroke="#000000" points="494.9757,-43 494.9757,-63 514.9757,-63 514.9757,-43 494.9757,-43"/>
<text text-anchor="start" x="501.4757" y="-48.8" font-family="Times,serif" font-size="14.00" fill="#000000">9</text>
<polygon fill="none" stroke="#000000" points="400.9757,-21 400.9757,-41 437.9757,-41 437.9757,-21 400.9757,-21"/>
<text text-anchor="start" x="403.7257" y="-26.8" font-family="Times,serif" font-size="14.00" fill="#000000">103.4</text>
<polygon fill="none" stroke="#000000" points="439.9757,-21 439.9757,-41 463.9757,-41 463.9757,-21 439.9757,-21"/>
<text text-anchor="start" x="442.6447" y="-26.8" font-family="Times,serif" font-size="14.00" fill="#000000">&#45;20</text>
<polygon fill="none" stroke="#000000" points="465.9757,-21 465.9757,-41 492.9757,-41 492.9757,-21 465.9757,-21"/>
<text text-anchor="start" x="472.4757" y="-26.8" font-family="Times,serif" font-size="14.00" fill="#000000">12</text>
<polygon fill="none" stroke="#000000" points="494.9757,-21 494.9757,-41 514.9757,-41 514.9757,-21 494.9757,-21"/>
<text text-anchor="start" x="497.9757" y="-26.8" font-family="Times,serif" font-size="14.00" fill="#000000">32</text>
</g>
<!-- coincidence_finder -->
<g id="node6" class="node">
<title>coincidence_finder</title>
<ellipse fill="none" stroke="#000000" cx="642.3629" cy="-63" rx="77.2744" ry="18"/>
<text text-anchor="middle" x="642.3629" y="-58.8" font-family="Times,serif" font-size="14.00" fill="#000000">coincidence_finder</text>
</g>
<!-- scintillations&#45;&gt;coincidence_finder -->
<g id="edge3" class="edge">
<title>scintillations&#45;&gt;coincidence_finder</title>
<path fill="none" stroke="#000000" d="M529.0009,-63C537.4593,-63 546.169,-63 554.8239,-63"/>
<polygon fill="#000000" stroke="#000000" points="554.9405,-66.5001 564.9405,-63 554.9404,-59.5001 554.9405,-66.5001"/>
</g>
<!-- decays -->
<g id="node3" class="node">
<title>decays</title>
<text text-anchor="start" x="799.3877" y="-85.8" font-family="Times,serif" font-size="14.00" fill="#000000">beta decay events</text>
<polygon fill="none" stroke="#000000" points="770.75,-54 770.75,-74 807.75,-74 807.75,-54 770.75,-54"/>
<text text-anchor="start" x="787.3052" y="-59.8" font-family="Times,serif" font-size="14.00" fill="#000000">t</text>
<polygon fill="none" stroke="#000000" points="809.75,-54 809.75,-74 832.75,-74 832.75,-54 809.75,-54"/>
<text text-anchor="start" x="817.75" y="-59.8" font-family="Times,serif" font-size="14.00" fill="#000000">x</text>
<polygon fill="none" stroke="#000000" points="834.75,-54 834.75,-74 847.75,-74 847.75,-54 834.75,-54"/>
<text text-anchor="start" x="837.75" y="-59.8" font-family="Times,serif" font-size="14.00" fill="#000000">y</text>
<polygon fill="none" stroke="#000000" points="849.75,-54 849.75,-74 866.75,-74 866.75,-54 849.75,-54"/>
<text text-anchor="start" x="855.143" y="-59.8" font-family="Times,serif" font-size="14.00" fill="#000000">z</text>
<polygon fill="none" stroke="#000000" points="868.75,-54 868.75,-74 901.75,-74 901.75,-54 868.75,-54"/>
<text text-anchor="start" x="871.6465" y="-59.8" font-family="Times,serif" font-size="14.00" fill="#000000">theta</text>
<polygon fill="none" stroke="#000000" points="903.75,-54 903.75,-74 926.75,-74 926.75,-54 903.75,-54"/>
<text text-anchor="start" x="906.3052" y="-59.8" font-family="Times,serif" font-size="14.00" fill="#000000">phi</text>
<polygon fill="none" stroke="#000000" points="770.75,-32 770.75,-52 807.75,-52 807.75,-32 770.75,-32"/>
<text text-anchor="start" x="773.5" y="-37.8" font-family="Times,serif" font-size="14.00" fill="#000000">98.05</text>
<polygon fill="none" stroke="#000000" points="809.75,-32 809.75,-52 832.75,-52 832.75,-32 809.75,-32"/>
<text text-anchor="start" x="812.5" y="-37.8" font-family="Times,serif" font-size="14.00" fill="#000000">0.2</text>
<polygon fill="none" stroke="#000000" points="834.75,-32 834.75,-52 847.75,-52 847.75,-32 834.75,-32"/>
<text text-anchor="start" x="837.75" y="-37.8" font-family="Times,serif" font-size="14.00" fill="#000000">1</text>
<polygon fill="none" stroke="#000000" points="849.75,-32 849.75,-52 866.75,-52 866.75,-32 849.75,-32"/>
<text text-anchor="start" x="852.4189" y="-37.8" font-family="Times,serif" font-size="14.00" fill="#000000">&#45;3</text>
<polygon fill="none" stroke="#000000" points="868.75,-32 868.75,-52 901.75,-52 901.75,-32 868.75,-32"/>
<text text-anchor="start" x="876.5" y="-37.8" font-family="Times,serif" font-size="14.00" fill="#000000">3.3</text>
<polygon fill="none" stroke="#000000" points="903.75,-32 903.75,-52 926.75,-52 926.75,-32 903.75,-32"/>
<text text-anchor="start" x="906.5" y="-37.8" font-family="Times,serif" font-size="14.00" fill="#000000">1.9</text>
<polygon fill="none" stroke="#000000" points="767.75,-29 767.75,-77 929.75,-77 929.75,-29 767.75,-29"/>
</g>
<!-- calculate_density -->
<g id="node7" class="node">
<title>calculate_density</title>
<ellipse fill="none" stroke="#000000" cx="1049.2429" cy="-63" rx="71.4858" ry="18"/>
<text text-anchor="middle" x="1049.2429" y="-58.8" font-family="Times,serif" font-size="14.00" fill="#000000">calculate_density</text>
</g>
<!-- decays&#45;&gt;calculate_density -->
<g id="edge5" class="edge">
<title>decays&#45;&gt;calculate_density</title>
<path fill="none" stroke="#000000" d="M941.953,-63C950.459,-63 959.033,-63 967.4283,-63"/>
<polygon fill="#000000" stroke="#000000" points="967.5637,-66.5001 977.5637,-63 967.5636,-59.5001 967.5637,-66.5001"/>
</g>
<!-- density -->
<g id="node4" class="node">
<title>density</title>
<text text-anchor="start" x="1217.1616" y="-106.8" font-family="Times,serif" font-size="14.00" fill="#000000">radioisotope density</text>
<polygon fill="none" stroke="#000000" points="1170.7358,-76 1170.7358,-96 1221.7358,-96 1221.7358,-76 1170.7358,-76"/>
<text text-anchor="start" x="1173.4892" y="-81.8" font-family="Times,serif" font-size="14.00" fill="#000000">voxel id</text>
<polygon fill="none" stroke="#000000" points="1223.7358,-76 1223.7358,-96 1251.7358,-96 1251.7358,-76 1223.7358,-76"/>
<text text-anchor="start" x="1234.2358" y="-81.8" font-family="Times,serif" font-size="14.00" fill="#000000">x</text>
<polygon fill="none" stroke="#000000" points="1253.7358,-76 1253.7358,-96 1283.7358,-96 1283.7358,-76 1253.7358,-76"/>
<text text-anchor="start" x="1265.2358" y="-81.8" font-family="Times,serif" font-size="14.00" fill="#000000">y</text>
<polygon fill="none" stroke="#000000" points="1285.7358,-76 1285.7358,-96 1309.7358,-96 1309.7358,-76 1285.7358,-76"/>
<text text-anchor="start" x="1294.6289" y="-81.8" font-family="Times,serif" font-size="14.00" fill="#000000">z</text>
<polygon fill="none" stroke="#000000" points="1311.7358,-76 1311.7358,-96 1376.7358,-96 1376.7358,-76 1311.7358,-76"/>
<text text-anchor="start" x="1314.3081" y="-81.8" font-family="Times,serif" font-size="14.00" fill="#000000">decays/sec</text>
<polygon fill="none" stroke="#000000" points="1170.7358,-54 1170.7358,-74 1221.7358,-74 1221.7358,-54 1170.7358,-54"/>
<text text-anchor="start" x="1192.7358" y="-59.8" font-family="Times,serif" font-size="14.00" fill="#000000">1</text>
<polygon fill="none" stroke="#000000" points="1223.7358,-54 1223.7358,-74 1251.7358,-74 1251.7358,-54 1223.7358,-54"/>
<text text-anchor="start" x="1228.9858" y="-59.8" font-family="Times,serif" font-size="14.00" fill="#000000">0.4</text>
<polygon fill="none" stroke="#000000" points="1253.7358,-54 1253.7358,-74 1283.7358,-74 1283.7358,-54 1253.7358,-54"/>
<text text-anchor="start" x="1261.7358" y="-59.8" font-family="Times,serif" font-size="14.00" fill="#000000">20</text>
<polygon fill="none" stroke="#000000" points="1285.7358,-54 1285.7358,-74 1309.7358,-74 1309.7358,-54 1285.7358,-54"/>
<text text-anchor="start" x="1290.7358" y="-59.8" font-family="Times,serif" font-size="14.00" fill="#000000">13</text>
<polygon fill="none" stroke="#000000" points="1311.7358,-54 1311.7358,-74 1376.7358,-74 1376.7358,-54 1311.7358,-54"/>
<text text-anchor="start" x="1331.9858" y="-59.8" font-family="Times,serif" font-size="14.00" fill="#000000">10.4</text>
<polygon fill="none" stroke="#000000" points="1170.7358,-32 1170.7358,-52 1221.7358,-52 1221.7358,-32 1170.7358,-32"/>
<text text-anchor="start" x="1192.7358" y="-37.8" font-family="Times,serif" font-size="14.00" fill="#000000">2</text>
<polygon fill="none" stroke="#000000" points="1223.7358,-32 1223.7358,-52 1251.7358,-52 1251.7358,-32 1223.7358,-32"/>
<text text-anchor="start" x="1228.9858" y="-37.8" font-family="Times,serif" font-size="14.00" fill="#000000">1.4</text>
<polygon fill="none" stroke="#000000" points="1253.7358,-32 1253.7358,-52 1283.7358,-52 1283.7358,-32 1253.7358,-32"/>
<text text-anchor="start" x="1265.2358" y="-37.8" font-family="Times,serif" font-size="14.00" fill="#000000">2</text>
<polygon fill="none" stroke="#000000" points="1285.7358,-32 1285.7358,-52 1309.7358,-52 1309.7358,-32 1285.7358,-32"/>
<text text-anchor="start" x="1294.2358" y="-37.8" font-family="Times,serif" font-size="14.00" fill="#000000">3</text>
<polygon fill="none" stroke="#000000" points="1311.7358,-32 1311.7358,-52 1376.7358,-52 1376.7358,-32 1311.7358,-32"/>
<text text-anchor="start" x="1331.9858" y="-37.8" font-family="Times,serif" font-size="14.00" fill="#000000">1.01</text>
<polygon fill="none" stroke="#000000" points="1170.7358,-10 1170.7358,-30 1221.7358,-30 1221.7358,-10 1170.7358,-10"/>
<text text-anchor="start" x="1192.7358" y="-15.8" font-family="Times,serif" font-size="14.00" fill="#000000">3</text>
<polygon fill="none" stroke="#000000" points="1223.7358,-10 1223.7358,-30 1251.7358,-30 1251.7358,-10 1223.7358,-10"/>
<text text-anchor="start" x="1226.6547" y="-15.8" font-family="Times,serif" font-size="14.00" fill="#000000">&#45;3.2</text>
<polygon fill="none" stroke="#000000" points="1253.7358,-10 1253.7358,-30 1283.7358,-30 1283.7358,-10 1253.7358,-10"/>
<text text-anchor="start" x="1256.4858" y="-15.8" font-family="Times,serif" font-size="14.00" fill="#000000">0.01</text>
<polygon fill="none" stroke="#000000" points="1285.7358,-10 1285.7358,-30 1309.7358,-30 1309.7358,-10 1285.7358,-10"/>
<text text-anchor="start" x="1288.4047" y="-15.8" font-family="Times,serif" font-size="14.00" fill="#000000">&#45;20</text>
<polygon fill="none" stroke="#000000" points="1311.7358,-10 1311.7358,-30 1376.7358,-30 1376.7358,-10 1311.7358,-10"/>
<text text-anchor="start" x="1331.9858" y="-15.8" font-family="Times,serif" font-size="14.00" fill="#000000">0.00</text>
</g>
<!-- find_scintillations&#45;&gt;scintillations -->
<g id="edge2" class="edge">
<title>find_scintillations&#45;&gt;scintillations</title>
<path fill="none" stroke="#000000" d="M351.1595,-63C359.5446,-63 368.1273,-63 376.6046,-63"/>
<polygon fill="#000000" stroke="#000000" points="376.8724,-66.5001 386.8724,-63 376.8724,-59.5001 376.8724,-66.5001"/>
</g>
<!-- coincidence_finder&#45;&gt;decays -->
<g id="edge4" class="edge">
<title>coincidence_finder&#45;&gt;decays</title>
<path fill="none" stroke="#000000" d="M719.801,-63C728.1866,-63 736.8145,-63 745.4436,-63"/>
<polygon fill="#000000" stroke="#000000" points="745.5593,-66.5001 755.5593,-63 745.5593,-59.5001 745.5593,-66.5001"/>
</g>
<!-- calculate_density&#45;&gt;density -->
<g id="edge6" class="edge">
<title>calculate_density&#45;&gt;density</title>
<path fill="none" stroke="#000000" d="M1120.8911,-63C1129.0995,-63 1137.6427,-63 1146.3088,-63"/>
<polygon fill="#000000" stroke="#000000" points="1146.526,-66.5001 1156.526,-63 1146.5259,-59.5001 1146.526,-66.5001"/>
</g>
</g>
</svg>
