<?xml version="1.0" encoding="UTF-8" standalone="no"?>
<!DOCTYPE svg PUBLIC "-//W3C//DTD SVG 1.1//EN"
 "http://www.w3.org/Graphics/SVG/1.1/DTD/svg11.dtd">
<!-- Generated by graphviz version 2.40.1 (20161225.0304)
 -->
<!-- Title: %3 Pages: 1 -->
<svg width="645pt" height="98pt"
 viewBox="0.00 0.00 645.42 98.00" xmlns="http://www.w3.org/2000/svg" xmlns:xlink="http://www.w3.org/1999/xlink">
<g id="graph0" class="graph" transform="scale(1 1) rotate(0) translate(4 94)">
<title>%3</title>
<polygon fill="#ffffff" stroke="transparent" points="-4,4 -4,-94 641.4246,-94 641.4246,4 -4,4"/>
<!-- simulator -->
<g id="node1" class="node">
<title>simulator</title>
<ellipse fill="none" stroke="#000000" cx="43.5116" cy="-45" rx="43.5233" ry="18"/>
<text text-anchor="middle" x="43.5116" y="-40.8" font-family="Times,serif" font-size="14.00" fill="#000000">simulator</text>
</g>
<!-- Y -->
<g id="node2" class="node">
<title>Y</title>
<polygon fill="none" stroke="#000000" points="177.0233,-88 123.0233,-88 123.0233,-52 177.0233,-52 177.0233,-88"/>
<text text-anchor="middle" x="150.0233" y="-65.8" font-family="Times,serif" font-size="14.00" fill="#000000">Y</text>
</g>
<!-- simulator&#45;&gt;Y -->
<g id="edge1" class="edge">
<title>simulator&#45;&gt;Y</title>
<path fill="none" stroke="#000000" d="M81.3636,-53.8845C91.678,-56.3054 102.8359,-58.9244 113.0982,-61.3331"/>
<polygon fill="#000000" stroke="#000000" points="112.4622,-64.7789 122.9974,-63.6566 114.0618,-57.9641 112.4622,-64.7789"/>
</g>
<!-- X_t -->
<g id="node3" class="node">
<title>X_t</title>
<polygon fill="none" stroke="#000000" points="284.5151,-36 230.5151,-36 230.5151,0 284.5151,0 284.5151,-36"/>
<text text-anchor="middle" x="257.5151" y="-13.8" font-family="Times,serif" font-size="14.00" fill="#000000">X_t</text>
</g>
<!-- simulator&#45;&gt;X_t -->
<g id="edge2" class="edge">
<title>simulator&#45;&gt;X_t</title>
<path fill="none" stroke="#000000" d="M85.2817,-39.73C124.5301,-34.7782 182.7131,-27.4375 220.3777,-22.6855"/>
<polygon fill="#000000" stroke="#000000" points="220.9409,-26.1423 230.4241,-21.418 220.0646,-19.1973 220.9409,-26.1423"/>
</g>
<!-- algorithm -->
<g id="node6" class="node">
<title>algorithm</title>
<ellipse fill="none" stroke="#000000" cx="257.5151" cy="-72" rx="44.4837" ry="18"/>
<text text-anchor="middle" x="257.5151" y="-67.8" font-family="Times,serif" font-size="14.00" fill="#000000">algorithm</text>
</g>
<!-- Y&#45;&gt;algorithm -->
<g id="edge3" class="edge">
<title>Y&#45;&gt;algorithm</title>
<path fill="none" stroke="#000000" d="M177.148,-70.5047C185.0107,-70.651 193.8904,-70.8162 202.8055,-70.9821"/>
<polygon fill="#000000" stroke="#000000" points="202.7702,-74.4819 212.8336,-71.1687 202.9005,-67.4831 202.7702,-74.4819"/>
</g>
<!-- calculate_loss -->
<g id="node7" class="node">
<title>calculate_loss</title>
<ellipse fill="none" stroke="#000000" cx="487.7158" cy="-45" rx="59.9184" ry="18"/>
<text text-anchor="middle" x="487.7158" y="-40.8" font-family="Times,serif" font-size="14.00" fill="#000000">calculate_loss</text>
</g>
<!-- X_t&#45;&gt;calculate_loss -->
<g id="edge5" class="edge">
<title>X_t&#45;&gt;calculate_loss</title>
<path fill="none" stroke="#000000" d="M284.8261,-21.2033C318.3752,-25.1382 376.4235,-31.9466 421.8573,-37.2755"/>
<polygon fill="#000000" stroke="#000000" points="421.5936,-40.7685 431.9332,-38.4573 422.4091,-33.8162 421.5936,-40.7685"/>
</g>
<!-- X -->
<g id="node4" class="node">
<title>X</title>
<polygon fill="none" stroke="#000000" points="392.0069,-88 338.0069,-88 338.0069,-52 392.0069,-52 392.0069,-88"/>
<text text-anchor="middle" x="365.0069" y="-65.8" font-family="Times,serif" font-size="14.00" fill="#000000">X</text>
</g>
<!-- X&#45;&gt;calculate_loss -->
<g id="edge6" class="edge">
<title>X&#45;&gt;calculate_loss</title>
<path fill="none" stroke="#000000" d="M392.24,-64.4517C402.8256,-62.295 415.3982,-59.7336 427.8864,-57.1893"/>
<polygon fill="#000000" stroke="#000000" points="428.7441,-60.5865 437.8441,-55.1606 427.3466,-53.7274 428.7441,-60.5865"/>
</g>
<!-- score -->
<g id="node5" class="node">
<title>score</title>
<polygon fill="none" stroke="#000000" points="637.4246,-63 583.4246,-63 583.4246,-27 637.4246,-27 637.4246,-63"/>
<text text-anchor="middle" x="610.4246" y="-40.8" font-family="Times,serif" font-size="14.00" fill="#000000">score</text>
</g>
<!-- algorithm&#45;&gt;X -->
<g id="edge4" class="edge">
<title>algorithm&#45;&gt;X</title>
<path fill="none" stroke="#000000" d="M302.1675,-71.1692C310.6846,-71.0107 319.5155,-70.8464 327.7709,-70.6928"/>
<polygon fill="#000000" stroke="#000000" points="327.9198,-74.1907 337.8529,-70.5052 327.7895,-67.192 327.9198,-74.1907"/>
</g>
<!-- calculate_loss&#45;&gt;score -->
<g id="edge7" class="edge">
<title>calculate_loss&#45;&gt;score</title>
<path fill="none" stroke="#000000" d="M547.6323,-45C556.3464,-45 565.0991,-45 573.1869,-45"/>
<polygon fill="#000000" stroke="#000000" points="573.377,-48.5001 583.377,-45 573.3769,-41.5001 573.377,-48.5001"/>
</g>
</g>
</svg>
